# xmcd
#
# Track frame offsets: 
#        150
#        15847
#        29449
#        42679
#        58098
#        76655
#        90777
#        105681
#        120802
#        135008
#        152529
#        163634
#        181272
#        195608
#        205531
#
# Disc length: 2885 seconds
#
# Revision: 1
# Processed by: cddbd v1.5.2PL0 Copyright (c) Steve Scherf et al.
# Submitted via: ExactAudioCopyFreeDBPlugin 1.0
#
DISCID=a00b430f
DTITLE=Tom Astor - Leben pur
DYEAR=2010
DGENRE=Country
TTITLE0=Du bist der positivste Schock in meinem Leben
TTITLE1=Strohblumen (Sunflower)
TTITLE2=Du hast mich vor mir gerettet
TTITLE3=Jenseits der Zeit (O waly, waly)
TTITLE4=Ich brauch' das Leben pur (Only the lonely know)
TTITLE5=Ein Leben lang
TTITLE6=Sensucht
TTITLE7=Oh, Susanna
TTITLE8=Dieser Typ
TTITLE9=Diese Zeit mit dir (Du)
TTITLE10=Ring aus Feuer (Ring of fire)
TTITLE11=Wenn ich bete
TTITLE12=When it comes down to us (It's all up to you)
TTITLE13=Auf der Autobahn (On the road again)
TTITLE14=Wer hat ein Herz das nie bricht (Some brocken hearts never me
TTITLE14=nd)
EXTD=
EXTT0=
EXTT1=
EXTT2=
EXTT3=
EXTT4=
EXTT5=
EXTT6=
EXTT7=
EXTT8=
EXTT9=
EXTT10=
EXTT11=
EXTT12=
EXTT13=
EXTT14=
PLAYORDER=
